<?xml version="1.0" encoding="UTF-8"?>
<!DOCTYPE svg PUBLIC "-//W3C//DTD SVG 1.1//EN" "http://www.w3.org/Graphics/SVG/1.1/DTD/svg11.dtd">
<!-- Creator: CorelDRAW -->
<svg xmlns="http://www.w3.org/2000/svg" xml:space="preserve" width="9.97666in" height="9.97666in" version="1.1" style="shape-rendering:geometricPrecision; text-rendering:geometricPrecision; image-rendering:optimizeQuality; fill-rule:evenodd; clip-rule:evenodd"
viewBox="0 0 9976.66 9976.66"
 xmlns:xlink="http://www.w3.org/1999/xlink"
 xmlns:xodm="http://www.corel.com/coreldraw/odm/2003">
 <defs>
  <style type="text/css">
   <![CDATA[
    .fil0 {fill:#2E0700}
    .fil1 {fill:#D4FF29}
   ]]>
  </style>
 </defs>
 <g id="Layer_x0020_1">
  <metadata id="CorelCorpID_0Corel-Layer"/>
  <rect class="fil0" transform="matrix(1.03014E-13 3.85512 -3.87929 1.02372E-13 9994.26 3.08019)" width="2586.67" height="2586.67"/>
  <g id="_2127580078336">
   <rect class="fil1" transform="matrix(0.68815 0.68815 -0.68815 0.68815 -63.1024 2601.17)" width="3490" height="3490"/>
   <rect class="fil0" transform="matrix(0.68815 0.68815 -0.68815 0.68815 -65.3944 3227.38)" width="2586.67" height="2586.67"/>
   <rect class="fil1" transform="matrix(0.68815 0.68815 -0.68815 0.68815 -53.9261 3812.31)" width="1730" height="1730"/>
   <rect class="fil0" transform="matrix(0.68815 0.68815 -0.68815 0.68815 -40.1631 4385.77)" width="876.67" height="876.67"/>
  </g>
  <g id="_2127580080112">
   <rect class="fil1" transform="matrix(0.68815 0.68815 -0.68815 0.68815 9996.54 2582.82)" width="3490" height="3490"/>
   <rect class="fil0" transform="matrix(0.68815 0.68815 -0.68815 0.68815 9994.25 3209.03)" width="2586.67" height="2586.67"/>
   <rect class="fil1" transform="matrix(0.68815 0.68815 -0.68815 0.68815 10005.7 3793.96)" width="1730" height="1730"/>
   <rect class="fil0" transform="matrix(0.68815 0.68815 -0.68815 0.68815 10019.5 4367.42)" width="876.67" height="876.67"/>
  </g>
 </g>
</svg>
