<?xml version="1.0" encoding="UTF-8"?>
<!DOCTYPE svg PUBLIC "-//W3C//DTD SVG 1.1//EN" "http://www.w3.org/Graphics/SVG/1.1/DTD/svg11.dtd">
<!-- Creator: CorelDRAW -->
<svg xmlns="http://www.w3.org/2000/svg" xml:space="preserve" width="9.97666in" height="9.97666in" version="1.1" style="shape-rendering:geometricPrecision; text-rendering:geometricPrecision; image-rendering:optimizeQuality; fill-rule:evenodd; clip-rule:evenodd"
viewBox="0 0 9976.66 9976.66"
 xmlns:xlink="http://www.w3.org/1999/xlink"
 xmlns:xodm="http://www.corel.com/coreldraw/odm/2003">
 <defs>
  <style type="text/css">
   <![CDATA[
    .fil0 {fill:#2E0700}
    .fil1 {fill:#D4FF29}
   ]]>
  </style>
 </defs>
 <g id="Layer_x0020_1">
  <metadata id="CorelCorpID_0Corel-Layer"/>
  <rect class="fil0" transform="matrix(1.03014E-13 3.85512 -3.87929 1.02372E-13 9994.26 3.08019)" width="2586.67" height="2586.67"/>
  <g id="_2127577488544">
   <rect class="fil1" transform="matrix(0.68815 0.68815 -0.68815 0.68815 4977.04 -2406.46)" width="3490" height="3490"/>
   <rect class="fil0" transform="matrix(0.68815 0.68815 -0.68815 0.68815 4974.75 -1780.25)" width="2586.67" height="2586.67"/>
   <rect class="fil1" transform="matrix(0.68815 0.68815 -0.68815 0.68815 4986.22 -1195.32)" width="1730" height="1730"/>
   <rect class="fil0" transform="matrix(0.68815 0.68815 -0.68815 0.68815 4999.98 -621.858)" width="876.67" height="876.67"/>
  </g>
  <g id="_2127344266672">
   <rect class="fil1" transform="matrix(0.68815 0.68815 -0.68815 0.68815 4977.04 7587.11)" width="3490" height="3490"/>
   <rect class="fil0" transform="matrix(0.68815 0.68815 -0.68815 0.68815 4974.75 8213.32)" width="2586.67" height="2586.67"/>
   <rect class="fil1" transform="matrix(0.68815 0.68815 -0.68815 0.68815 4986.22 8798.25)" width="1730" height="1730"/>
   <rect class="fil0" transform="matrix(0.68815 0.68815 -0.68815 0.68815 4999.98 9371.71)" width="876.67" height="876.67"/>
  </g>
 </g>
</svg>
